<svg xmlns="http://www.w3.org/2000/svg" xmlns:xlink="http://www.w3.org/1999/xlink" width="1em" height="1em" viewBox="0 0 24 24" class="_3-Q_RGo0"><defs><path id="prefix__a" d="M1.175.689l-.392.689-.391.689L0 2.756a6.971 6.971 0 012.342 1.916 6.47 6.47 0 011.005 1.865c.184.532.246.95.282 1.227l.04.418.005.502-.036.502-.002.01c-.22 2.109-1.617 4.053-3.612 5.049l-.008.004.395.687.394.688.394.688.394.688.01-.006a10.104 10.104 0 003.656-3.112 9.276 9.276 0 001.687-4.357l.001-.012.053-.74-.008-.742-.056-.62a8.961 8.961 0 00-.417-1.821A9.486 9.486 0 005.03 2.832 10.21 10.21 0 001.566 0l-.391.689"></path><path id="prefix__c" d="M0 0h3.123v3.319H0z"></path><path id="prefix__e" d="M0 0h3.123v3.319H0z"></path><path id="prefix__g" d="M0 0h3.295v3.127H0z"></path><path id="prefix__i" d="M0 0h3.123v3.315H0z"></path><path id="prefix__k" d="M0 0h3.124v3.315H0z"></path></defs><g fill="none" fill-rule="evenodd"><g transform="translate(15 3)"><mask id="prefix__b" fill="#fff"><use xlink:href="#prefix__a"></use></mask><path d="M1.175.689l-.392.689-.391.689L0 2.756a6.971 6.971 0 012.342 1.916 6.47 6.47 0 011.005 1.865c.184.532.246.95.282 1.227l.04.418.005.502-.036.502-.002.01c-.22 2.109-1.617 4.053-3.612 5.049l-.008.004.395.687.394.688.394.688.394.688.01-.006a10.104 10.104 0 003.656-3.112 9.276 9.276 0 001.687-4.357l.001-.012.053-.74-.008-.742-.056-.62a8.961 8.961 0 00-.417-1.821A9.486 9.486 0 005.03 2.832 10.21 10.21 0 001.566 0l-.391.689" mask="url(#prefix__b)"></path></g><g transform="translate(10.21 18.681)"><mask id="prefix__d" fill="#fff"><use xlink:href="#prefix__c"></use></mask><path fill="#000" d="M.735 3.263c-.266-.052-.778.017-.732-.385L.496.218A.267.267 0 01.801.002a6.944 6.944 0 001.655.04.267.267 0 01.295.229l.37 2.677a.275.275 0 01-.239.31c-.71.079-1.43.08-2.147.004" mask="url(#prefix__d)"></path></g><path fill="#000" d="M8.05 21.19a9.868 9.868 0 01-2.284-1.369.274.274 0 01-.035-.388l1.744-2.065a.267.267 0 01.372-.035c.436.34.91.624 1.413.847.134.059.2.209.145.344l-.995 2.514a.275.275 0 01-.36.152m-4.017-3.146a9.982 9.982 0 01-1.313-2.313.274.274 0 01.16-.356l2.535-.94a.268.268 0 01.34.153c.212.51.485.99.815 1.436.087.117.07.28-.043.371L4.42 18.09a.273.273 0 01-.387-.046m-1.632-4.487a.272.272 0 01-.314-.23 9.974 9.974 0 01.003-2.657.273.273 0 01.316-.231l2.665.433c.145.023.24.156.222.3a6.78 6.78 0 00-.002 1.654.266.266 0 01-.221.3l-2.67.432zm3.015-3.998l-2.535-.937a.275.275 0 01-.16-.357 9.959 9.959 0 011.315-2.317.274.274 0 01.388-.044L6.528 7.6c.113.091.13.255.043.37-.33.445-.603.925-.814 1.435a.268.268 0 01-.34.153M7.476 6.63l-1.74-2.067a.274.274 0 01.036-.389 10.016 10.016 0 012.28-1.366c.14-.06.304.01.36.152l.998 2.513a.268.268 0 01-.145.344 6.79 6.79 0 00-1.417.849.268.268 0 01-.372-.035"></path><g transform="translate(10.21 18.681)"><mask id="prefix__f" fill="#fff"><use xlink:href="#prefix__e"></use></mask><path fill="#000" d="M2.457.043A6.942 6.942 0 01.802.003a.268.268 0 00-.305.214L.003 2.878c-.046.402.466.333.732.385a9.95 9.95 0 002.148-.004.273.273 0 00.238-.31L2.75.272a.268.268 0 00-.294-.23" mask="url(#prefix__f)"></path></g><path fill="#000" d="M9.26 18.18a6.686 6.686 0 01-1.413-.847.27.27 0 00-.373.034l-1.743 2.066a.274.274 0 00.035.389A9.992 9.992 0 008.05 21.19c.14.06.303-.01.36-.152l.995-2.514a.268.268 0 00-.144-.344M6.57 16.024a6.724 6.724 0 01-.814-1.436.27.27 0 00-.341-.153l-2.535.94a.274.274 0 00-.16.356c.333.826.773 1.602 1.313 2.313.092.122.269.14.387.046l2.107-1.695a.267.267 0 00.043-.37"></path><g transform="translate(2 10.434)"><mask id="prefix__h" fill="#fff"><use xlink:href="#prefix__g"></use></mask><path fill="#000" d="M3.291 2.391A6.772 6.772 0 013.293.738a.266.266 0 00-.221-.3L.406.003a.277.277 0 00-.317.232 10.073 10.073 0 00-.002 2.659c.02.15.164.254.314.23l2.668-.432a.266.266 0 00.222-.3" mask="url(#prefix__h)"></path></g><path fill="#000" d="M2.881 8.622l2.535.937a.27.27 0 00.341-.153c.211-.51.484-.99.814-1.434a.268.268 0 00-.043-.371L4.424 5.904a.272.272 0 00-.387.044 9.933 9.933 0 00-1.316 2.318.275.275 0 00.16.356M8.412 2.96a.274.274 0 00-.36-.152 9.994 9.994 0 00-2.28 1.366.274.274 0 00-.037.389L7.476 6.63a.268.268 0 00.372.035 6.79 6.79 0 011.417-.849.268.268 0 00.145-.344L8.412 2.96z"></path><g transform="translate(10.213 2)"><mask id="prefix__j" fill="#fff"><use xlink:href="#prefix__i"></use></mask><path fill="#000" d="M2.882.06A10.15 10.15 0 00.23.118.275.275 0 00.005.44l.492 2.658a.268.268 0 00.306.214 6.878 6.878 0 011.654-.036.268.268 0 00.296-.228L3.12.37a.274.274 0 00-.238-.31" mask="url(#prefix__j)"></path></g><path fill="#000" d="M15.451 2.622l.062.015a9.97 9.97 0 011.187.536l.004-.006a10.01 10.01 0 015.24 9.884 9.993 9.993 0 01-4.962 7.626l-.252.14c-.396.204-.802.389-1.22.546a.273.273 0 01-.351-.169l-.88-2.556a.266.266 0 01.16-.337 6.784 6.784 0 001.454-.784.317.317 0 01.06-.032 6.742 6.742 0 002.768-4.774 6.767 6.767 0 00-2.773-6.203l-.053-.027a6.654 6.654 0 00-1.45-.781.27.27 0 01-.162-.338l.879-2.556a.273.273 0 01.351-.17z"></path><g transform="translate(10.213 2)"><mask id="prefix__l" fill="#fff"><use xlink:href="#prefix__k"></use></mask><path fill="#000" d="M.497 3.098L.005.44A.272.272 0 01.228.12 10.176 10.176 0 012.883.06c.15.018.259.16.238.312l-.368 2.677a.267.267 0 01-.296.228 6.878 6.878 0 00-1.654.036.266.266 0 01-.306-.214" mask="url(#prefix__l)"></path></g></g></svg>