<svg xmlns="http://www.w3.org/2000/svg" xmlns:xlink="http://www.w3.org/1999/xlink" width="232" height="80" viewBox="0 0 232 80">
    <defs>
        <path id="caqoeuv05a" d="M0 80L232 80 232 0 0 0z"/>
    </defs>
    <g fill="none" fill-rule="evenodd">
        <g>
            <g transform="translate(-40.000000, -202.000000) translate(40.000000, 201.999906)">
                <path fill="#19486A" d="M21.123 6.293c-.167.33-.359.563-.576.699-.219.135-.477.203-.778.203-.302 0-.64-.117-1.017-.35-.375-.233-.82-.492-1.33-.778-.511-.285-1.11-.545-1.794-.778-.684-.233-1.493-.35-2.425-.35-.842 0-1.577.102-2.2.305-.625.203-1.15.485-1.58.846-.428.36-.748.793-.958 1.297-.21.503-.316 1.057-.316 1.657 0 .767.214 1.406.643 1.917.429.512.995.948 1.702 1.309.707.36 1.513.684 2.416.97.902.285 1.823.59 2.764.913.939.323 1.861.699 2.764 1.128.902.428 1.707.97 2.414 1.623.707.655 1.274 1.455 1.702 2.402.429.948.644 2.098.644 3.451 0 1.474-.253 2.853-.756 4.139-.504 1.286-1.24 2.406-2.21 3.36-.97.955-2.155 1.707-3.555 2.256-1.398.549-3 .823-4.805.823-1.038 0-2.061-.101-3.069-.304-1.009-.203-1.974-.493-2.9-.869-.924-.376-1.79-.827-2.594-1.353-.806-.526-1.523-1.113-2.155-1.76l1.76-2.909c.166-.21.365-.387.598-.53.233-.142.493-.214.779-.214.375 0 .782.154 1.218.462.435.309.95.65 1.546 1.027.594.376 1.293.718 2.098 1.026.804.308 1.77.462 2.9.462 1.728 0 3.068-.409 4.015-1.229.948-.82 1.422-1.996 1.422-3.53 0-.857-.214-1.556-.643-2.097-.429-.542-.997-.996-1.704-1.365-.707-.368-1.511-.68-2.415-.936-.902-.255-1.819-.533-2.752-.834-.933-.301-1.85-.662-2.752-1.083-.903-.42-1.708-.97-2.415-1.646-.706-.677-1.274-1.523-1.703-2.538-.429-1.015-.644-2.266-.644-3.755 0-1.188.237-2.346.712-3.473.474-1.128 1.165-2.128 2.076-3C6.16 2.015 7.275 1.316 8.6.789 9.924.263 11.435 0 13.135 0c1.926 0 3.7.302 5.325.902 1.625.602 3.008 1.444 4.152 2.526l-1.49 2.865zM26.401 32.974V9.834h3.407c.723 0 1.196.338 1.423 1.015l.36 1.714c.406-.451.831-.865 1.275-1.24.443-.377.917-.7 1.422-.97.503-.271 1.045-.485 1.624-.643.579-.158 1.214-.237 1.907-.237 1.458 0 2.658.395 3.599 1.184.94.79 1.642 1.838 2.109 3.146.362-.767.812-1.424 1.353-1.973.542-.549 1.136-.996 1.784-1.342.646-.346 1.334-.602 2.063-.767.73-.165 1.463-.248 2.2-.248 1.279 0 2.415.195 3.407.586.994.391 1.828.963 2.505 1.714.678.752 1.193 1.67 1.546 2.752.353 1.083.53 2.323.53 3.721v14.728h-5.573V18.246c0-1.473-.324-2.582-.97-3.326-.647-.745-1.595-1.117-2.843-1.117-.572 0-1.102.098-1.591.294-.49.195-.917.477-1.286.845-.369.369-.658.831-.869 1.387-.21.557-.316 1.196-.316 1.917v14.728h-5.595V18.246c0-1.548-.313-2.676-.937-3.383-.624-.706-1.545-1.06-2.763-1.06-.798 0-1.546.2-2.246.598-.698.398-1.35.944-1.95 1.635v16.938H26.4zM70.58 29.501c.57 0 1.098-.051 1.58-.156.48-.103.936-.258 1.364-.466.429-.207.842-.462 1.241-.766.399-.302.801-.662 1.207-1.077v-3.872c-1.624 0-2.983.102-4.072.306-1.09.204-1.967.466-2.63.784-.662.318-1.132.688-1.41 1.113-.277.424-.416.886-.416 1.385 0 .985.29 1.69.868 2.113.58.424 1.335.636 2.268.636zm10.83 3.474h-2.505c-.526 0-.94-.08-1.24-.237-.301-.158-.527-.478-.678-.959l-.496-1.646c-.586.526-1.162.988-1.726 1.387-.564.398-1.148.733-1.748 1.004-.602.27-1.242.473-1.918.609-.677.135-1.43.202-2.257.202-.978 0-1.88-.132-2.708-.395-.826-.264-1.537-.66-2.131-1.188-.594-.528-1.057-1.185-1.388-1.97-.33-.784-.496-1.696-.496-2.737 0-.875.23-1.739.687-2.592.46-.852 1.222-1.621 2.291-2.308 1.068-.686 2.489-1.256 4.264-1.709 1.775-.452 3.979-.678 6.611-.678v-1.364c0-1.56-.327-2.716-.981-3.466-.654-.75-1.607-1.125-2.854-1.125-.903 0-1.655.106-2.257.316-.601.21-1.124.448-1.568.71-.444.264-.853.5-1.23.711-.376.21-.79.316-1.24.316-.376 0-.7-.098-.97-.293-.271-.196-.49-.436-.656-.722l-1.014-1.782c2.662-2.436 5.873-3.654 9.634-3.654 1.354 0 2.561.222 3.621.666 1.06.443 1.96 1.06 2.697 1.85.736.789 1.297 1.732 1.68 2.83.383 1.097.576 2.3.576 3.608v14.616zM85.764 32.974V9.834h3.272c.571 0 .97.105 1.195.316.226.21.377.57.452 1.082l.338 2.797c.828-1.429 1.798-2.556 2.91-3.383 1.114-.827 2.362-1.24 3.746-1.24 1.143 0 2.091.262 2.843.789l-.72 4.172c-.047.27-.145.463-.295.575-.15.113-.354.17-.608.17-.226 0-.535-.053-.926-.158-.392-.106-.91-.158-1.557-.158-1.159 0-2.151.32-2.979.958-.827.64-1.526 1.575-2.097 2.808v14.412h-5.574zM110.674 33.335c-2.001 0-3.544-.568-4.626-1.703-1.083-1.135-1.624-2.702-1.624-4.702V14.006h-2.348c-.3 0-.56-.098-.777-.293-.218-.195-.327-.488-.327-.88v-2.21l3.722-.61 1.174-6.314c.059-.3.199-.534.417-.7.217-.165.492-.248.824-.248h2.888v7.285h6.092v3.97h-6.092v12.54c0 .722.18 1.286.54 1.692.362.406.844.609 1.445.609.346 0 .635-.042.868-.124.233-.083.436-.17.61-.26.172-.09.327-.176.463-.26.135-.08.27-.123.406-.123.164 0 .3.042.406.124.105.083.218.207.338.372l1.67 2.707c-.812.676-1.745 1.188-2.799 1.533-1.053.346-2.142.519-3.27.519M42.33 68.497c1.926 0 3.35-.645 4.276-1.94.925-1.292 1.388-3.187 1.388-5.683s-.463-4.398-1.388-5.706c-.925-1.308-2.35-1.963-4.276-1.963-1.955 0-3.4.658-4.332 1.974-.933 1.317-1.399 3.214-1.399 5.695 0 2.48.466 4.373 1.4 5.672.932 1.3 2.376 1.951 4.331 1.951m0-19.554c1.73 0 3.298.278 4.705.834 1.406.557 2.606 1.346 3.598 2.368.993 1.023 1.76 2.27 2.302 3.744.541 1.474.813 3.12.813 4.94 0 1.834-.272 3.488-.813 4.962-.542 1.473-1.309 2.729-2.302 3.766-.992 1.038-2.192 1.836-3.598 2.391-1.407.556-2.975.835-4.705.835s-3.301-.279-4.715-.835c-1.415-.555-2.621-1.353-3.622-2.39-1-1.038-1.775-2.294-2.324-3.767-.549-1.474-.823-3.128-.823-4.962 0-1.82.274-3.466.823-4.94.55-1.473 1.323-2.721 2.324-3.744 1-1.022 2.207-1.811 3.622-2.368 1.414-.556 2.985-.834 4.715-.834M56.974 72.444v-23.14h3.407c.723 0 1.196.338 1.422 1.015l.361 1.714c.405-.451.83-.865 1.274-1.24.444-.377.918-.7 1.422-.97.503-.271 1.045-.485 1.624-.643.58-.158 1.215-.237 1.908-.237 1.458 0 2.657.395 3.598 1.184.94.79 1.643 1.838 2.109 3.146.362-.767.812-1.424 1.354-1.973.541-.549 1.135-.996 1.783-1.342.646-.346 1.334-.602 2.064-.767.73-.165 1.463-.248 2.2-.248 1.278 0 2.414.195 3.407.586.993.391 1.827.963 2.504 1.714.678.752 1.193 1.67 1.547 2.752.352 1.083.529 2.323.529 3.721v14.728h-5.573V57.716c0-1.473-.324-2.582-.97-3.326-.646-.745-1.595-1.117-2.842-1.117-.573 0-1.103.098-1.592.293-.489.196-.917.478-1.286.846-.369.369-.658.831-.869 1.387-.21.557-.316 1.196-.316 1.917v14.728h-5.595V57.716c0-1.548-.312-2.676-.937-3.383-.624-.706-1.545-1.06-2.763-1.06-.798 0-1.546.2-2.245.598-.699.398-1.35.943-1.951 1.635v16.938h-5.574zM93.841 72.444v-23.14h3.407c.723 0 1.196.338 1.423 1.015l.36 1.714c.406-.451.83-.865 1.275-1.24.443-.377.917-.7 1.422-.97.503-.271 1.045-.485 1.624-.643.579-.158 1.214-.237 1.907-.237 1.458 0 2.658.395 3.599 1.184.94.79 1.642 1.838 2.109 3.146.362-.767.812-1.424 1.353-1.973.542-.549 1.136-.996 1.784-1.342.646-.346 1.334-.602 2.063-.767.73-.165 1.463-.248 2.2-.248 1.279 0 2.414.195 3.407.586.994.391 1.828.963 2.505 1.714.678.752 1.193 1.67 1.546 2.752.353 1.083.53 2.323.53 3.721v14.728h-5.574V57.716c0-1.473-.323-2.582-.97-3.326-.646-.745-1.594-1.117-2.842-1.117-.572 0-1.102.098-1.591.293-.49.196-.917.478-1.286.846-.369.369-.659.831-.87 1.387-.21.557-.315 1.196-.315 1.917v14.728h-5.596V57.716c0-1.548-.312-2.676-.936-3.383-.624-.706-1.546-1.06-2.763-1.06-.798 0-1.546.2-2.246.598-.698.398-1.35.943-1.95 1.635v16.938H93.84zM135.809 49.304v14.705c0 1.413.327 2.507.981 3.282.655.774 1.636 1.161 2.945 1.161.963 0 1.865-.214 2.707-.643.843-.428 1.64-1.018 2.392-1.77V49.304h5.573v23.14H147c-.722 0-1.196-.338-1.421-1.015l-.384-1.85c-.481.482-.979.922-1.49 1.32-.511.399-1.057.737-1.635 1.015-.579.278-1.203.496-1.873.654-.669.158-1.387.237-2.154.237-1.264 0-2.38-.214-3.351-.643-.97-.428-1.786-1.033-2.448-1.815-.662-.782-1.162-1.71-1.5-2.786-.339-1.075-.508-2.259-.508-3.552V49.304h5.573zM155.236 72.444v-23.14h3.407c.722 0 1.195.338 1.421 1.015l.384 1.827c.465-.482.958-.918 1.478-1.309.518-.39 1.067-.729 1.647-1.015.578-.285 1.2-.503 1.861-.654.662-.15 1.383-.225 2.165-.225 1.265 0 2.385.214 3.363.643.978.428 1.794 1.03 2.448 1.804.653.774 1.15 1.7 1.49 2.774.337 1.075.507 2.26.507 3.552v14.728h-5.574V57.716c0-1.413-.326-2.507-.982-3.281-.653-.775-1.634-1.162-2.943-1.162-.963 0-1.866.218-2.708.654-.843.436-1.64 1.03-2.391 1.782v16.735h-5.573z"/>
                <mask id="jwwq88yapb" fill="#fff">
                    <use xlink:href="#caqoeuv05a"/>
                </mask>
                <path fill="#19486A" d="M180.122 72.444h5.573v-23.14h-5.573v23.14zm6.408-29.884c0 .481-.098.932-.293 1.353-.196.421-.456.79-.779 1.105-.323.316-.703.568-1.139.756-.436.188-.903.282-1.4.282-.48 0-.935-.094-1.364-.282-.429-.188-.8-.44-1.117-.756-.316-.315-.569-.684-.756-1.105-.188-.42-.282-.872-.282-1.353 0-.496.094-.962.282-1.398.187-.436.44-.812.756-1.128.316-.316.688-.568 1.117-.756.429-.188.884-.282 1.364-.282.497 0 .964.094 1.4.282.436.188.816.44 1.14.756.322.316.582.692.778 1.128.195.436.293.902.293 1.398zM198.466 72.805c-2.001 0-3.543-.568-4.626-1.703-1.082-1.135-1.623-2.702-1.623-4.702V53.476h-2.348c-.3 0-.56-.098-.778-.293-.218-.195-.327-.488-.327-.88v-2.21l3.723-.609 1.174-6.315c.059-.3.199-.534.416-.7.218-.165.493-.247.824-.247h2.888v7.285h6.093v3.97h-6.093v12.54c0 .721.181 1.285.541 1.69.361.407.843.61 1.445.61.346 0 .635-.042.868-.124.233-.083.436-.17.61-.26.172-.09.327-.176.462-.259.136-.082.27-.124.407-.124.164 0 .3.042.405.124.106.083.218.207.34.372l1.668 2.707c-.811.676-1.744 1.188-2.798 1.533-1.053.346-2.143.52-3.271.52M215.41 78.805c-.166.39-.38.688-.643.89-.264.204-.666.305-1.207.305h-4.152l4.333-9.27-9.364-21.426h4.873c.452 0 .797.105 1.039.315.24.211.42.452.541.722l4.942 12c.165.39.307.796.428 1.217.12.421.225.842.316 1.263.12-.436.251-.857.395-1.263.142-.406.296-.82.463-1.24l4.647-11.977c.12-.3.32-.549.598-.744.278-.196.59-.293.936-.293h4.467l-12.612 29.5z" mask="url(#jwwq88yapb)"/>
                <path fill="#56C02B" d="M226.719 71.309c-.249-.04-.411-.268-.381-.517.115-.936.113-1.898-.003-2.842-.03-.249.133-.477.38-.518l4.587-.744c.258-.042.508.137.544.396.204 1.516.205 3.064.004 4.571-.035.259-.283.437-.54.395l-4.591-.741z" mask="url(#jwwq88yapb)"/>
                <path fill="#C5192D" d="M15.567 73.577c-.463-.09-1.354.03-1.274-.668l.859-4.626c.045-.25.279-.41.53-.373.948.137 1.925.162 2.88.07.252-.025.478.146.513.397l.643 4.654c.036.263-.15.512-.414.54-1.236.135-2.49.138-3.737.006" mask="url(#jwwq88yapb)"/>
                <path fill="#26BDE2" d="M10.529 72.266c-1.426-.611-2.76-1.41-3.975-2.38-.207-.165-.233-.473-.062-.675l3.035-3.59c.163-.194.447-.217.647-.06.759.59 1.583 1.085 2.46 1.472.232.102.346.363.253.598l-1.734 4.371c-.097.246-.38.369-.624.264" mask="url(#jwwq88yapb)"/>
                <path fill="#4C9F38" d="M22.898 72.273l-1.531-4.444c-.084-.24.042-.495.279-.587.894-.348 1.742-.804 2.529-1.361.208-.147.49-.11.644.091l2.862 3.73c.161.21.12.517-.094.672-1.26.911-2.627 1.646-4.077 2.191-.247.093-.525-.042-.612-.292" mask="url(#jwwq88yapb)"/>
                <path fill="#FCC30B" d="M3.537 66.798c-.939-1.237-1.705-2.587-2.284-4.024-.098-.245.032-.526.28-.618l4.41-1.633c.237-.089.495.032.592.266.368.886.844 1.722 1.418 2.496.152.204.122.487-.076.645l-3.665 2.946c-.206.165-.514.132-.675-.078" mask="url(#jwwq88yapb)"/>
                <path fill="#A21942" d="M.699 58.997c-.26.041-.513-.138-.547-.4-.204-1.525-.202-3.09.003-4.622.036-.264.289-.445.551-.402l4.639.753c.25.04.416.272.385.524-.117.954-.12 1.926-.003 2.874.03.252-.135.482-.386.523l-4.642.75z" mask="url(#jwwq88yapb)"/>
                <path fill="#FD6925" d="M1.534 50.415c-.248-.092-.378-.373-.28-.618.58-1.44 1.348-2.792 2.29-4.029.16-.21.468-.243.674-.078l3.66 2.951c.199.16.227.443.076.646-.575.771-1.05 1.606-1.416 2.492-.098.234-.355.354-.593.266l-4.411-1.63z" mask="url(#jwwq88yapb)"/>
                <path fill="#FD9D24" d="M9.529 46.955l-3.03-3.596c-.168-.203-.143-.511.065-.676 1.214-.967 2.546-1.763 3.968-2.374.244-.105.527.019.625.264l1.737 4.369c.094.236-.02.496-.251.6-.88.387-1.706.883-2.466 1.474-.2.156-.484.133-.648-.061" mask="url(#jwwq88yapb)"/>
                <path fill="#56C02B" d="M24.179 46.694c-.784-.556-1.63-1.012-2.525-1.357-.236-.092-.361-.347-.279-.587l1.528-4.446c.086-.25.364-.386.612-.293 1.454.545 2.823 1.28 4.082 2.194.214.156.254.463.092.672l-2.865 3.726c-.155.202-.437.237-.645.09" mask="url(#jwwq88yapb)"/>
                <path fill="#0A97D9" d="M15.157 44.29l-.858-4.62c-.048-.261.128-.519.39-.56 1.524-.237 3.088-.269 4.617-.101.265.029.453.277.416.54l-.64 4.654c-.035.252-.262.423-.514.397-.962-.096-1.93-.076-2.88.062-.25.037-.484-.123-.531-.373" mask="url(#jwwq88yapb)"/>
                <path fill="#C5192D" d="M15.567 73.577c-.463-.09-1.354.03-1.274-.668l.859-4.626c.045-.25.279-.41.53-.373.948.137 1.925.162 2.88.07.252-.025.478.146.513.397l.643 4.654c.036.263-.15.512-.414.54-1.236.135-2.49.138-3.737.006" mask="url(#jwwq88yapb)"/>
                <path fill="#26BDE2" d="M10.529 72.266c-1.426-.611-2.76-1.41-3.975-2.38-.207-.165-.233-.473-.062-.675l3.035-3.59c.163-.194.447-.217.647-.06.759.59 1.583 1.085 2.46 1.472.232.102.346.363.253.598l-1.734 4.371c-.097.246-.38.369-.624.264" mask="url(#jwwq88yapb)"/>
                <path fill="#E5243B" d="M22.898 72.273l-1.531-4.444c-.084-.24.042-.495.279-.587.894-.348 1.742-.804 2.529-1.361.208-.147.49-.11.644.091l2.862 3.73c.161.21.12.517-.094.672-1.26.911-2.627 1.646-4.077 2.191-.247.093-.525-.042-.612-.292" mask="url(#jwwq88yapb)"/>
                <path fill="#FCC30B" d="M3.537 66.798c-.939-1.237-1.705-2.587-2.284-4.024-.098-.245.032-.526.28-.618l4.41-1.633c.237-.089.495.032.592.266.368.886.844 1.722 1.418 2.496.152.204.122.487-.076.645l-3.665 2.946c-.206.165-.514.132-.675-.078" mask="url(#jwwq88yapb)"/>
                <path fill="#A21942" d="M.699 58.997c-.26.041-.513-.138-.547-.4-.204-1.525-.202-3.09.003-4.622.036-.264.289-.445.551-.402l4.639.753c.25.04.416.272.385.524-.117.954-.12 1.926-.003 2.874.03.252-.135.482-.386.523l-4.642.75z" mask="url(#jwwq88yapb)"/>
                <path fill="#FD6925" d="M5.945 52.045l-4.411-1.63c-.248-.092-.378-.373-.28-.618.58-1.44 1.348-2.792 2.29-4.029.16-.21.468-.243.674-.078l3.66 2.951c.199.16.227.443.076.646-.575.771-1.05 1.606-1.416 2.492-.098.234-.355.354-.593.266" mask="url(#jwwq88yapb)"/>
                <path fill="#FD9D24" d="M9.529 46.955l-3.03-3.596c-.168-.203-.143-.511.065-.676 1.214-.967 2.546-1.763 3.968-2.374.244-.105.527.019.625.264l1.737 4.369c.094.236-.02.496-.251.6-.88.387-1.706.883-2.466 1.474-.2.156-.484.133-.648-.061" mask="url(#jwwq88yapb)"/>
                <path fill="#00689D" d="M24.179 46.694c-.784-.556-1.63-1.012-2.525-1.357-.236-.092-.361-.347-.279-.587l1.528-4.446c.086-.25.364-.386.612-.293 1.454.545 2.823 1.28 4.082 2.194.214.156.254.463.092.672l-2.865 3.726c-.155.202-.437.237-.645.09" mask="url(#jwwq88yapb)"/>
                <path fill="#0A97D9" d="M15.157 44.29l-.858-4.62c-.048-.261.128-.519.39-.56 1.524-.237 3.088-.269 4.617-.101.265.029.453.277.416.54l-.64 4.654c-.035.252-.262.423-.514.397-.962-.096-1.93-.076-2.88.062-.25.037-.484-.123-.531-.373" mask="url(#jwwq88yapb)"/>
            </g>
        </g>
    </g>
</svg>
